<svg width="800" height="520" viewBox="0 0 800 520" fill="none" xmlns="http://www.w3.org/2000/svg">
  <rect width="800" height="520" rx="36" fill="#0A1A44"/>
  <path d="M49 390C130 285.5 223 233 328 232C433 231 533 281.5 628 383C685 443.5 733.333 474 773 474" stroke="#FFFFFF" stroke-opacity="0.16" stroke-width="14"/>
  <path d="M85 430C161 336.5 245 290 337 290C429 290 514.5 333 593.5 419C638.5 468 688.333 492.667 743 493" stroke="#C8102E" stroke-width="16"/>
  <circle cx="197" cy="132" r="68" fill="#C8102E" fill-opacity="0.14"/>
  <circle cx="603" cy="162" r="112" fill="#FFFFFF" fill-opacity="0.06"/>
  <rect x="96" y="103" width="242" height="118" rx="24" fill="#FFFFFF" fill-opacity="0.07" stroke="#FFFFFF" stroke-opacity="0.16" stroke-width="2"/>
  <path d="M144 163H290" stroke="#FFFFFF" stroke-width="10" stroke-linecap="round"/>
  <path d="M144 134H234" stroke="#FFFFFF" stroke-opacity="0.72" stroke-width="10" stroke-linecap="round"/>
  <path d="M457 131C457 101.729 480.729 78 510 78H614C643.271 78 667 101.729 667 131V196C667 225.271 643.271 249 614 249H510C480.729 249 457 225.271 457 196V131Z" fill="#FFFFFF" fill-opacity="0.08"/>
  <path d="M492 136L554 192L632 111" stroke="#FFFFFF" stroke-width="12" stroke-linecap="round" stroke-linejoin="round"/>
</svg>
